<?xml version="1.0" encoding="UTF-8" standalone="no"?><!DOCTYPE svg PUBLIC "-//W3C//DTD SVG 1.1//EN" "http://www.w3.org/Graphics/SVG/1.1/DTD/svg11.dtd"><svg width="100%" height="100%" viewBox="0 0 1000 1000" version="1.1" xmlns="http://www.w3.org/2000/svg" xmlns:xlink="http://www.w3.org/1999/xlink" xml:space="preserve" xmlns:serif="http://www.serif.com/" style="fill-rule:evenodd;clip-rule:evenodd;stroke-linejoin:round;stroke-miterlimit:1.41421;"><path d="M450.898,201.969c-10.822,-11.806 -17.43,-27.537 -17.43,-44.8c0,-36.612 29.724,-66.335 66.335,-66.335c36.612,0 66.336,29.723 66.336,66.335c0,17.252 -6.601,32.975 -17.412,44.779l200.415,341.57l86.994,-37.145c-0.237,-2.277 -0.358,-4.589 -0.358,-6.929c0,-36.611 29.724,-66.335 66.335,-66.335c36.612,0 66.336,29.724 66.336,66.335c0,29.814 -19.71,55.06 -46.8,63.407l0,216.573c27.09,8.347 46.8,33.594 46.8,63.407c0,36.612 -29.724,66.335 -66.336,66.335c-36.611,0 -66.335,-29.723 -66.335,-66.335c0,-17.252 6.6,-32.975 17.411,-44.779l-120.338,-205.094l-568.987,242.944c0.237,2.278 0.358,4.589 0.358,6.929c0,36.612 -29.724,66.335 -66.335,66.335c-36.612,0 -66.336,-29.723 -66.336,-66.335c0,-36.612 29.724,-66.336 66.336,-66.336c5.233,0 10.325,0.608 15.21,1.756l337.801,-576.282Zm64.143,19.774c-4.893,1.152 -9.995,1.762 -15.238,1.762c-5.233,0 -10.325,-0.608 -15.21,-1.756l-337.801,576.282c0.583,0.637 1.155,1.285 1.714,1.945l564.411,-240.991l-197.876,-337.242Zm336.453,320.557l-82.418,35.19l113.502,193.443l0,-208.082c-12.251,-3.774 -22.992,-11.005 -31.084,-20.551Z" style="fill:#fff;"/></svg>